<svg width="43" height="43" viewBox="0 0 43 43" fill="none" xmlns="http://www.w3.org/2000/svg">
<path d="M37.625 2.6875H5.375C3.89688 2.6875 2.6875 3.89688 2.6875 5.375V37.625C2.6875 39.1031 3.89688 40.3125 5.375 40.3125H25.5312V37.625C25.5312 33.8625 28.4875 30.9062 32.25 30.9062V28.2188C27.0094 28.2188 22.8438 32.3844 22.8438 37.625H18.8125V32.25H16.125V37.625H5.375V5.375H16.125V24.1875H18.8125V17.4688H24.1875V14.7812H18.8125V5.375H37.625V14.7812H32.25V17.4688H37.625V37.625H32.25V40.3125H37.625C39.1031 40.3125 40.3125 39.1031 40.3125 37.625V5.375C40.3125 3.89688 39.1031 2.6875 37.625 2.6875Z" fill="white"/>
</svg>
