<svg width="43" height="43" viewBox="0 0 43 43" fill="none" xmlns="http://www.w3.org/2000/svg">
<g clip-path="url(#clip0_14_659)">
<path d="M36.0005 3.58333C36.0005 3.26654 35.8747 2.96273 35.6507 2.73873C35.4267 2.51473 35.1229 2.38889 34.8061 2.38889H8.52831C8.21152 2.38889 7.90771 2.51473 7.68371 2.73873C7.45971 2.96273 7.33386 3.26654 7.33386 3.58333V4.77777H36.0005V3.58333Z" fill="#D9D9D9"/>
<path d="M38.3656 8.3611C38.3656 8.04431 38.2397 7.7405 38.0157 7.5165C37.7917 7.2925 37.4879 7.16666 37.1711 7.16666H6.11559C5.7988 7.16666 5.49499 7.2925 5.27099 7.5165C5.04699 7.7405 4.92114 8.04431 4.92114 8.3611V9.55555H38.3656V8.3611Z" fill="#D9D9D9"/>
<path d="M38.3656 11.9445H4.63447C4.03891 11.9445 3.46775 12.181 3.04662 12.6022C2.6255 13.0233 2.38892 13.5945 2.38892 14.19V35.9767C2.38892 36.5722 2.6255 37.1434 3.04662 37.5645C3.46775 37.9856 4.03891 38.2222 4.63447 38.2222H38.3656C38.9611 38.2222 39.5323 37.9856 39.9534 37.5645C40.3745 37.1434 40.6111 36.5722 40.6111 35.9767V14.19C40.6111 13.5945 40.3745 13.0233 39.9534 12.6022C39.5323 12.181 38.9611 11.9445 38.3656 11.9445ZM10.2245 16.0653C10.9332 16.0653 11.626 16.2755 12.2153 16.6692C12.8045 17.0629 13.2638 17.6226 13.535 18.2773C13.8063 18.9321 13.8772 19.6526 13.739 20.3477C13.6007 21.0428 13.2594 21.6813 12.7583 22.1824C12.2571 22.6836 11.6186 23.0248 10.9235 23.1631C10.2284 23.3014 9.50796 23.2304 8.85319 22.9592C8.19842 22.688 7.63878 22.2287 7.24504 21.6394C6.8513 21.0501 6.64114 20.3573 6.64114 19.6486C6.64114 18.6983 7.01867 17.7868 7.69067 17.1148C8.36268 16.4428 9.27411 16.0653 10.2245 16.0653ZM35.8334 33.4445H7.16669L16.0772 24.522C16.2361 24.3644 16.4507 24.276 16.6745 24.276C16.8982 24.276 17.1129 24.3644 17.2717 24.522L21.6672 28.9175L27.7231 22.6945C27.8819 22.5369 28.0966 22.4485 28.3203 22.4485C28.544 22.4485 28.7587 22.5369 28.9175 22.6945L35.8334 29.6103V33.4445Z" fill="#D9D9D9"/>
</g>
<defs>
<clipPath id="clip0_14_659">
<rect width="43" height="43" fill="white"/>
</clipPath>
</defs>
</svg>
