<svg width="43" height="43" viewBox="0 0 43 43" fill="none" xmlns="http://www.w3.org/2000/svg">
<path d="M1.79163 1.79166H41.2083M8.95829 1.79166V10.75C8.95829 16.125 17.9166 16.546 17.9166 21.5C17.9166 26.4539 8.95829 26.875 8.95829 32.25V41.2083M34.0416 1.79166V10.75C34.0416 16.125 25.0833 16.546 25.0833 21.5C25.0833 26.4539 34.0416 26.875 34.0416 32.25V41.2083M1.79163 41.2083H41.2083M17.9166 8.06249H25.0833V10.75C25.0833 12.5417 21.5 14.3333 21.5 14.3333C21.5 14.3333 17.9166 12.5417 17.9166 10.75V8.06249ZM14.3333 37.625C14.3333 34.0417 21.5 30.4583 21.5 30.4583C21.5 30.4583 28.6666 34.0417 28.6666 37.625V41.2083H14.3333V37.625Z" stroke="#D9D9D9" stroke-width="3.58333"/>
</svg>
