<svg width="43" height="43" viewBox="0 0 43 43" fill="none" xmlns="http://www.w3.org/2000/svg">
<path d="M41.6562 10.75C41.6562 10.2125 41.3875 9.80937 40.9844 9.54063L31.5781 4.16562C31.3094 4.03125 31.175 4.03125 30.9062 4.03125C30.6375 4.03125 30.5031 4.03125 30.2344 4.16562L21.5 9.1375L12.7656 4.16562C12.4969 4.03125 12.3625 4.03125 12.0938 4.03125C11.825 4.03125 11.6906 4.03125 11.4219 4.16562L2.01562 9.54063C1.6125 9.80937 1.34375 10.2125 1.34375 10.75V37.625C1.34375 38.4313 1.88125 38.9688 2.6875 38.9688C2.95625 38.9688 3.09063 38.8344 3.35938 38.8344L12.0938 33.8625L20.8281 38.8344C21.0969 38.9688 21.2313 38.9688 21.5 38.9688C21.7687 38.9688 21.9031 38.9688 22.1719 38.8344L30.9062 33.8625L39.6406 38.8344C39.775 38.9688 40.0438 38.9688 40.3125 38.9688C41.1188 38.9688 41.6562 38.4313 41.6562 37.625V10.75ZM4.03125 11.5563L10.75 7.65937V31.4438L4.03125 35.3406V11.5563ZM20.1562 35.3406L13.4375 31.4438V7.65937L20.1562 11.5563V35.3406ZM29.5625 31.4438L22.8438 35.3406V11.5563L29.5625 7.65937V31.4438ZM32.25 31.4438V7.65937L38.9688 11.5563V35.3406L32.25 31.4438Z" fill="#D9D9D9"/>
</svg>
