<?xml version="1.0" encoding="utf-8"?>
<!-- Generator: Adobe Illustrator 27.5.0, SVG Export Plug-In . SVG Version: 6.00 Build 0)  -->
<svg version="1.1" id="Layer_1" xmlns="http://www.w3.org/2000/svg" xmlns:xlink="http://www.w3.org/1999/xlink" x="0px" y="0px"
	 viewBox="0 0 349.47 132.22" style="enable-background:new 0 0 349.47 132.22;" xml:space="preserve">
<style type="text/css">
	.st0{fill:#034EA2;}
	.st1{fill:#ED1C24;}
	.st2{fill:#12B24B;}
	.st3{fill:#D80B8C;}
	.st4{fill:#00A6E9;}
	.st5{fill:#F58220;}
	.st6{fill:#09529E;}
	.st7{fill:#24B34B;}
	.st8{fill:#E00F8B;}
	.st9{fill:#28ADE4;}
</style>
<g>
	<path class="st0" d="M43.34,33.24c-2.66-1.4-6.22-2.67-9.77-2.67c-5.09,0-7.85,2.21-7.85,4.93c0,3.07,4.24,5.38,11.33,9.7
		c8.11,5,12.41,8.9,12.41,14.62c0,5.87-7.26,12.65-20.88,12.65c-6.31,0-13.32-1.47-17.8-4.64l4.42-5.34
		c3.18,1.8,6.88,3.73,12.33,3.73c5.01,0,9.42-2.06,9.42-6.46c0-5.1-8.11-8.5-12.95-11.43c-5.87-3.64-10.79-6.49-10.79-12.7
		c0-6.25,8.2-11.3,19.18-11.3c6.9,0,12.42,1.93,15.26,4.06L43.34,33.24z"/>
	<polygon class="st1" points="114.5,36.45 108.49,29.95 114.5,23.46 120.52,29.95 	"/>
	<path class="st0" d="M151.59,64.5c-1.01-1.64-1.35-3.97-1.34-5.84V47.41c0.02-4.01-2.07-6.55-4.72-7.85
		c-2.65-1.33-5.82-1.63-8.37-1.63c-4.75-0.01-8.38,1.07-11.82,3.63l-0.74,0.55l3.41,3.4l0.53-0.34c2.37-1.51,4.61-2.63,8.29-2.64
		c1.46,0,2.91,0.46,3.98,1.24c0.88,0.65,1.51,1.48,1.76,2.49l-7.31,1.78c-3.51,0.81-6.55,1.92-8.78,3.47
		c-2.22,1.53-3.67,3.61-3.66,6.15c-0.01,2.62,1.08,4.85,2.92,6.36c1.84,1.51,4.38,2.31,7.32,2.31c3.33-0.01,6.38-1.68,8.78-3.54l0,0
		l0.89-0.67c0.09,1.17,0.35,2.33,1.05,3.28l0.24,0.32h8.32L151.59,64.5z M142.75,51.46c0,6.55-4.66,9.69-8.18,9.7
		c-1.01,0-2.04-0.36-2.78-1c-0.75-0.63-1.22-1.49-1.22-2.58c0.01-1.37,0.53-2.36,1.72-3.31c1.19-0.93,3.09-1.71,5.65-2.31v-0.01
		l4.8-1.08C142.75,51.08,142.76,51.27,142.75,51.46z M137.76,51.19L137.76,51.19L137.76,51.19L137.76,51.19z"/>
	<rect x="110.99" y="38.8" class="st0" width="7.03" height="26.64"/>
	<path class="st0" d="M105.73,60.66l-0.43,0.18c-1.11,0.45-2.26,0.83-4.39,0.84c-1.73-0.02-2.64-0.49-3.22-1.3
		c-0.58-0.82-0.83-2.15-0.83-3.9V42.49h8.7V38.8h-8.7v-7.84l-7.04,1.83v6.01h-4.66v3.69h4.66v14.85c0,2.71,0.84,4.94,2.61,6.45
		c1.76,1.5,4.35,2.26,7.75,2.26c2.35-0.01,4.88-0.63,7.02-1.68l0.5-0.25L105.73,60.66z"/>
	<path class="st0" d="M80.13,59.37c-2.14,1.24-5.81,2.11-8.71,2.11c-5.84,0-10-3.95-10.41-8.25H83.3l0.07-0.72
		c0.06-0.55,0.08-1.11,0.08-1.67c0-3.23-0.94-6.46-3.18-8.9c-2.23-2.44-5.71-4.01-10.53-4c-3.89,0-7.97,1.03-11.14,3.27
		c-3.17,2.23-5.4,5.73-5.39,10.41c-0.01,4.7,1.82,8.47,5.02,10.96c3.2,2.49,7.67,3.74,12.97,3.74c3.63,0,7.85-1.09,11.43-3.05
		l0.76-0.42L80.76,59L80.13,59.37z M61.49,48.56c0.53-2.75,2.76-5.78,8.21-5.81c2.45,0.01,4.05,0.78,5.1,1.94
		c0.89,1,1.39,2.35,1.52,3.87H61.49z"/>
</g>
<g>
	<path class="st0" d="M15.62,86.51C14.51,86.15,13.64,85.64,13,85c-0.64-0.64-0.96-1.42-0.96-2.33c0-0.89,0.32-1.66,0.96-2.31
		c0.64-0.64,1.42-0.97,2.33-0.97c0.9,0,1.68,0.32,2.33,0.97c0.35,0.34,0.6,0.73,0.74,1.15l-0.79,0.31c-0.12-0.32-0.31-0.6-0.57-0.87
		c-0.47-0.47-1.04-0.7-1.7-0.7c-0.67,0-1.23,0.23-1.71,0.7c-0.47,0.47-0.71,1.04-0.71,1.71c0,0.67,0.23,1.24,0.7,1.71
		c0.44,0.43,1.05,0.83,1.82,1.19c1.25,0.4,2.29,1.03,3.14,1.88c0.89,0.89,1.34,1.97,1.34,3.24c0,1.27-0.45,2.36-1.34,3.26
		c-0.9,0.9-1.98,1.35-3.25,1.35c-1.27,0-2.36-0.45-3.25-1.36c-0.73-0.72-1.16-1.55-1.3-2.5l0.82-0.3c0.09,0.84,0.45,1.57,1.08,2.2
		c0.73,0.73,1.61,1.1,2.65,1.1c1.03,0,1.91-0.37,2.65-1.1c0.73-0.73,1.1-1.61,1.1-2.65c0-1.02-0.37-1.9-1.1-2.63
		C17.33,87.4,16.55,86.89,15.62,86.51"/>
	<polygon class="st0" points="22.82,85.58 22.82,81.53 23.69,81.53 23.69,85.58 25.63,85.58 25.63,86.46 23.69,86.46 23.69,95.11 
		22.82,95.11 22.82,86.46 20.88,86.46 20.88,85.58 	"/>
	<path class="st0" d="M37.33,95.11h-0.88v-1.94c-0.17,0.23-0.35,0.44-0.55,0.65c-1.04,1.05-2.3,1.57-3.78,1.57
		c-1.46,0-2.72-0.52-3.76-1.57c-1.04-1.04-1.57-2.3-1.57-3.76c0-1.48,0.52-2.74,1.57-3.78c1.04-1.04,2.3-1.56,3.76-1.56
		c1.48,0,2.74,0.52,3.78,1.56c0.2,0.21,0.38,0.42,0.55,0.65v-1.35h0.88V95.11z M36.45,90.92v-1.72c-0.16-0.86-0.56-1.61-1.21-2.25
		c-0.86-0.86-1.9-1.3-3.12-1.3c-1.22,0-2.25,0.43-3.11,1.3c-0.86,0.86-1.29,1.9-1.29,3.12c0,1.21,0.43,2.25,1.29,3.11
		c0.86,0.86,1.9,1.29,3.11,1.29c1.22,0,2.26-0.43,3.12-1.3C35.89,92.51,36.29,91.77,36.45,90.92"/>
	<polygon class="st0" points="40.56,98.74 39.58,98.74 42.09,93.34 38.47,85.58 39.45,85.58 42.58,92.23 45.72,85.58 46.7,85.58 	
		"/>
	<polygon class="st0" points="57.59,80.46 57.59,95.11 56.72,95.11 56.72,80.46 52.79,80.46 52.79,79.58 61.52,79.58 61.52,80.46 	
		"/>
	<path class="st0" d="M67.08,84.72c1.48,0,2.74,0.52,3.77,1.56c1.04,1.04,1.55,2.3,1.55,3.78c0,1.46-0.52,2.72-1.55,3.76
		c-1.04,1.04-2.29,1.57-3.77,1.57c-1.46,0-2.72-0.52-3.76-1.57c-1.04-1.04-1.56-2.3-1.56-3.76c0-1.48,0.52-2.74,1.56-3.78
		C64.36,85.24,65.62,84.72,67.08,84.72 M63.97,86.94c-0.86,0.86-1.29,1.9-1.29,3.12c0,1.21,0.43,2.25,1.29,3.11
		c0.86,0.86,1.9,1.29,3.11,1.29c1.21,0,2.25-0.43,3.11-1.29c0.86-0.86,1.29-1.89,1.29-3.11c0-1.22-0.43-2.26-1.29-3.12
		c-0.86-0.86-1.9-1.3-3.11-1.3C65.86,85.64,64.83,86.08,63.97,86.94"/>
	<path class="st0" d="M83.4,93.22c-0.17,0.2-0.35,0.4-0.53,0.59c-1.04,1.05-2.3,1.57-3.78,1.57c-1.46,0-2.72-0.52-3.76-1.57
		c-1.04-1.04-1.57-2.3-1.57-3.76c0-1.48,0.52-2.74,1.57-3.77c1.04-1.04,2.3-1.55,3.76-1.55c1.48,0,2.74,0.52,3.78,1.55
		c0.2,0.21,0.38,0.42,0.55,0.65v-1.35h0.88v7.4c0,1.44-0.51,2.66-1.53,3.67c-1.04,1.05-2.3,1.57-3.77,1.57s-2.73-0.52-3.78-1.57
		c-0.21-0.21-0.4-0.43-0.57-0.66l0.92-0.34l0.32,0.34c0.86,0.86,1.89,1.3,3.11,1.3c1.21,0,2.24-0.43,3.11-1.3
		C82.9,95.21,83.33,94.28,83.4,93.22 M83.41,89.15c-0.17-0.84-0.57-1.57-1.2-2.21c-0.86-0.86-1.9-1.3-3.12-1.3
		c-1.22,0-2.25,0.43-3.11,1.3c-0.86,0.86-1.29,1.9-1.29,3.12c0,1.21,0.43,2.25,1.29,3.11c0.86,0.86,1.9,1.29,3.11,1.29
		c1.22,0,2.26-0.43,3.12-1.3c0.62-0.62,1.02-1.35,1.2-2.19V89.15z"/>
	<path class="st0" d="M86.62,89.57c-0.02,0.15-0.03,0.32-0.03,0.49c0,1.21,0.43,2.25,1.29,3.11c0.86,0.86,1.9,1.29,3.11,1.29
		c1.21,0,2.25-0.43,3.12-1.3c0.15-0.15,0.29-0.3,0.42-0.46l0.93,0.33c-0.11,0.18-0.34,0.45-0.69,0.79c-1.04,1.05-2.3,1.57-3.78,1.57
		c-1.46,0-2.72-0.52-3.76-1.57c-1.04-1.04-1.56-2.3-1.56-3.76c0-1.48,0.52-2.74,1.56-3.78c1.04-1.04,2.3-1.56,3.76-1.56
		c1.48,0,2.74,0.52,3.78,1.56c0.92,0.92,1.37,2.02,1.37,3.28H86.62z M86.78,88.68h8.37c-0.2-0.67-0.55-1.25-1.04-1.74
		c-0.86-0.86-1.9-1.3-3.12-1.3c-1.22,0-2.26,0.43-3.12,1.3C87.36,87.46,86.99,88.04,86.78,88.68"/>
	<polygon class="st0" points="98.83,85.58 98.83,81.53 99.7,81.53 99.7,85.58 101.64,85.58 101.64,86.46 99.7,86.46 99.7,95.11 
		98.83,95.11 98.83,86.46 96.89,86.46 96.89,85.58 	"/>
	<path class="st0" d="M103.02,79.58h0.88v6.49c0.73-0.71,1.62-1.07,2.66-1.07c1.12,0,2.03,0.35,2.74,1.06
		c0.71,0.71,1.07,1.59,1.09,2.66v6.38h-0.88v-6.29c0-0.81-0.29-1.5-0.88-2.08c-0.59-0.57-1.28-0.86-2.08-0.86
		c-0.81,0-1.5,0.28-2.08,0.85c-0.26,0.26-0.46,0.52-0.58,0.8v7.58h-0.88V79.58z"/>
	<path class="st0" d="M112.95,89.57c-0.02,0.15-0.03,0.32-0.03,0.49c0,1.21,0.43,2.25,1.29,3.11c0.86,0.86,1.9,1.29,3.11,1.29
		c1.22,0,2.26-0.43,3.12-1.3c0.15-0.15,0.28-0.3,0.42-0.46l0.93,0.33c-0.11,0.18-0.34,0.45-0.69,0.79c-1.04,1.05-2.3,1.57-3.78,1.57
		c-1.46,0-2.72-0.52-3.76-1.57c-1.04-1.04-1.56-2.3-1.56-3.76c0-1.48,0.52-2.74,1.56-3.78c1.04-1.04,2.3-1.56,3.76-1.56
		c1.48,0,2.74,0.52,3.78,1.56c0.91,0.92,1.37,2.02,1.37,3.28H112.95z M113.12,88.68h8.37c-0.21-0.67-0.55-1.25-1.04-1.74
		c-0.86-0.86-1.9-1.3-3.12-1.3c-1.22,0-2.25,0.43-3.12,1.3C113.69,87.46,113.33,88.04,113.12,88.68"/>
	<path class="st0" d="M127.33,86.35c-0.62,0.09-1.23,0.49-1.84,1.19c-0.6,0.7-0.9,1.4-0.9,2.11v5.47h-0.88v-9.53h0.88v2.07
		c0.37-0.96,1.12-1.67,2.25-2.14L127.33,86.35z"/>
	<path class="st0" d="M127.78,93.76c0.17,0.17,0.26,0.37,0.26,0.62c0,0.24-0.09,0.45-0.26,0.61c-0.17,0.17-0.37,0.25-0.61,0.25
		c-0.24,0-0.45-0.08-0.62-0.25c-0.17-0.17-0.26-0.37-0.26-0.61c0-0.24,0.09-0.45,0.26-0.62c0.17-0.17,0.38-0.25,0.62-0.25
		C127.41,93.51,127.61,93.59,127.78,93.76"/>
	<path class="st0" d="M139.66,86.51c-1.11-0.37-1.98-0.87-2.62-1.51c-0.64-0.64-0.96-1.42-0.96-2.33c0-0.89,0.32-1.66,0.96-2.31
		c0.64-0.64,1.42-0.97,2.33-0.97c0.9,0,1.68,0.32,2.33,0.97c0.35,0.34,0.6,0.73,0.74,1.15l-0.79,0.31c-0.12-0.32-0.31-0.6-0.57-0.87
		c-0.47-0.47-1.04-0.7-1.7-0.7c-0.67,0-1.23,0.23-1.71,0.7c-0.47,0.47-0.71,1.04-0.71,1.71c0,0.67,0.23,1.24,0.7,1.71
		c0.44,0.43,1.05,0.83,1.82,1.19c1.25,0.4,2.29,1.03,3.14,1.88c0.89,0.89,1.34,1.97,1.34,3.24c0,1.27-0.45,2.36-1.35,3.26
		c-0.9,0.9-1.98,1.35-3.25,1.35c-1.27,0-2.36-0.45-3.25-1.36c-0.73-0.72-1.16-1.55-1.3-2.5l0.82-0.3c0.09,0.84,0.45,1.57,1.08,2.2
		c0.73,0.73,1.61,1.1,2.65,1.1c1.03,0,1.92-0.37,2.65-1.1c0.73-0.73,1.1-1.61,1.1-2.65c0-1.02-0.37-1.9-1.1-2.63
		C141.38,87.4,140.59,86.89,139.66,86.51"/>
	<polygon class="st0" points="146.87,85.58 146.87,81.53 147.73,81.53 147.73,85.58 149.68,85.58 149.68,86.46 147.73,86.46 
		147.73,95.11 146.87,95.11 146.87,86.46 144.92,86.46 144.92,85.58 	"/>
	<path class="st0" d="M161.37,95.11h-0.88v-1.94c-0.17,0.23-0.35,0.44-0.55,0.65c-1.04,1.05-2.3,1.57-3.78,1.57
		c-1.46,0-2.72-0.52-3.76-1.57c-1.04-1.04-1.56-2.3-1.56-3.76c0-1.48,0.52-2.74,1.56-3.78c1.04-1.04,2.3-1.56,3.76-1.56
		c1.48,0,2.74,0.52,3.78,1.56c0.2,0.21,0.38,0.42,0.55,0.65v-1.35h0.88V95.11z M160.5,90.92v-1.72c-0.16-0.86-0.56-1.61-1.21-2.25
		c-0.86-0.86-1.9-1.3-3.12-1.3c-1.22,0-2.25,0.43-3.11,1.3c-0.86,0.86-1.29,1.9-1.29,3.12c0,1.21,0.43,2.25,1.29,3.11
		c0.86,0.86,1.9,1.29,3.11,1.29c1.22,0,2.25-0.43,3.12-1.3C159.93,92.51,160.33,91.77,160.5,90.92"/>
	<polygon class="st0" points="164.6,98.74 163.63,98.74 166.14,93.34 162.52,85.58 163.49,85.58 166.62,92.23 169.76,85.58 
		170.74,85.58 	"/>
	<path class="st0" d="M181.92,86.51c-1.11-0.37-1.98-0.87-2.62-1.51c-0.64-0.64-0.96-1.42-0.96-2.33c0-0.89,0.32-1.66,0.96-2.31
		c0.64-0.64,1.42-0.97,2.33-0.97c0.9,0,1.68,0.32,2.33,0.97c0.35,0.34,0.6,0.73,0.73,1.15l-0.79,0.31c-0.12-0.32-0.31-0.6-0.57-0.87
		c-0.47-0.47-1.04-0.7-1.7-0.7s-1.23,0.23-1.71,0.7c-0.47,0.47-0.71,1.04-0.71,1.71c0,0.67,0.23,1.24,0.7,1.71
		c0.44,0.43,1.05,0.83,1.82,1.19c1.24,0.4,2.29,1.03,3.14,1.88c0.89,0.89,1.34,1.97,1.34,3.24c0,1.27-0.45,2.36-1.34,3.26
		c-0.9,0.9-1.98,1.35-3.25,1.35c-1.27,0-2.36-0.45-3.25-1.36c-0.73-0.72-1.16-1.55-1.3-2.5l0.82-0.3c0.09,0.84,0.45,1.57,1.08,2.2
		c0.73,0.73,1.61,1.1,2.65,1.1s1.91-0.37,2.65-1.1c0.73-0.73,1.1-1.61,1.1-2.65c0-1.02-0.37-1.9-1.1-2.63
		C183.64,87.4,182.85,86.89,181.92,86.51"/>
	<path class="st0" d="M188.36,89.57c-0.02,0.15-0.03,0.32-0.03,0.49c0,1.21,0.43,2.25,1.29,3.11c0.86,0.86,1.9,1.29,3.11,1.29
		c1.21,0,2.26-0.43,3.12-1.3c0.15-0.15,0.29-0.3,0.42-0.46l0.93,0.33c-0.11,0.18-0.34,0.45-0.69,0.79c-1.04,1.05-2.3,1.57-3.78,1.57
		c-1.46,0-2.72-0.52-3.76-1.57c-1.04-1.04-1.56-2.3-1.56-3.76c0-1.48,0.52-2.74,1.56-3.78c1.04-1.04,2.3-1.56,3.76-1.56
		c1.48,0,2.74,0.52,3.78,1.56c0.92,0.92,1.37,2.02,1.37,3.28H188.36z M188.52,88.68h8.37c-0.21-0.67-0.55-1.25-1.04-1.74
		c-0.86-0.86-1.9-1.3-3.12-1.3c-1.22,0-2.26,0.43-3.12,1.3C189.1,87.46,188.74,88.04,188.52,88.68"/>
	<polygon class="st0" points="200.57,85.58 200.57,81.53 201.44,81.53 201.44,85.58 203.38,85.58 203.38,86.46 201.44,86.46 
		201.44,95.11 200.57,95.11 200.57,86.46 198.63,86.46 198.63,85.58 	"/>
	<path class="st0" d="M206.09,82.46c0.17,0.17,0.26,0.37,0.26,0.6c0,0.25-0.09,0.46-0.26,0.63c-0.17,0.17-0.37,0.25-0.61,0.25
		c-0.24,0-0.45-0.08-0.62-0.25c-0.17-0.17-0.26-0.38-0.26-0.63c0-0.23,0.09-0.44,0.26-0.6c0.17-0.17,0.38-0.25,0.62-0.25
		C205.71,82.21,205.92,82.29,206.09,82.46 M205.91,95.11h-0.87v-9.53h0.87V95.11z"/>
	<path class="st0" d="M218.56,95.11h-0.88v-1.94c-0.17,0.23-0.35,0.44-0.55,0.65c-1.04,1.05-2.3,1.57-3.78,1.57
		c-1.46,0-2.72-0.52-3.76-1.57c-1.04-1.04-1.57-2.3-1.57-3.76c0-1.48,0.52-2.74,1.57-3.78c1.04-1.04,2.3-1.56,3.76-1.56
		c1.48,0,2.74,0.52,3.78,1.56c0.2,0.21,0.38,0.42,0.55,0.65v-1.35h0.88V95.11z M217.68,90.92v-1.72c-0.16-0.86-0.56-1.61-1.21-2.25
		c-0.86-0.86-1.9-1.3-3.12-1.3c-1.22,0-2.25,0.43-3.11,1.3c-0.86,0.86-1.29,1.9-1.29,3.12c0,1.21,0.43,2.25,1.29,3.11
		c0.86,0.86,1.9,1.29,3.11,1.29c1.22,0,2.26-0.43,3.12-1.3C217.12,92.51,217.52,91.77,217.68,90.92"/>
	<g>
		<path class="st2" d="M79.68,114.55c-1.82,0-2.59-1.27-2.59-2.53v-9.56h2.21v9.43c0,0.53,0.22,0.8,0.78,0.8h0.85v1.86H79.68z"/>
		<path class="st2" d="M82.92,102.39h2.26v1.8h-2.26V102.39z M82.95,105.7h2.21v8.85h-2.21V105.7z"/>
		<polygon class="st2" points="92.04,114.55 90.31,114.55 87.05,105.7 89.37,105.7 91.18,111.17 92.96,105.7 95.29,105.7 		"/>
		<path class="st2" d="M98.24,110.82c0,1.14,0.7,1.98,1.94,1.98c0.97,0,1.44-0.28,2-0.84l1.34,1.3c-0.9,0.9-1.77,1.39-3.37,1.39
			c-2.09,0-4.09-0.94-4.09-4.53c0-2.88,1.57-4.51,3.86-4.51c2.46,0,3.85,1.8,3.85,4.23v0.99H98.24z M101.4,108.35
			c-0.24-0.52-0.73-0.92-1.47-0.92c-0.75,0-1.24,0.39-1.48,0.92c-0.14,0.32-0.19,0.57-0.21,0.96h3.36
			C101.59,108.92,101.54,108.68,101.4,108.35"/>
	</g>
	<g>
		<path class="st3" d="M108.57,114.55c-1.82,0-2.59-1.27-2.59-2.53v-9.56h2.21v9.43c0,0.53,0.22,0.8,0.78,0.8h0.85v1.86H108.57z"/>
		<path class="st3" d="M113.24,110.82c0,1.14,0.7,1.98,1.94,1.98c0.97,0,1.44-0.28,2-0.84l1.34,1.3c-0.9,0.9-1.77,1.39-3.36,1.39
			c-2.09,0-4.09-0.94-4.09-4.53c0-2.88,1.56-4.51,3.85-4.51c2.46,0,3.85,1.8,3.85,4.23v0.99H113.24z M116.39,108.34
			c-0.24-0.53-0.73-0.92-1.47-0.92c-0.74,0-1.24,0.39-1.48,0.92c-0.14,0.32-0.18,0.56-0.2,0.95h3.37
			C116.58,108.91,116.54,108.67,116.39,108.34"/>
		<path class="st3" d="M125.26,114.55v-0.76c-0.6,0.59-1.16,0.85-2.18,0.85c-1,0-1.73-0.25-2.26-0.78c-0.47-0.49-0.73-1.2-0.73-1.99
			c0-1.41,0.97-2.56,3.03-2.56h2.09v-0.45c0-0.96-0.48-1.39-1.65-1.39c-0.85,0-1.24,0.2-1.7,0.73l-1.41-1.37
			c0.86-0.95,1.72-1.22,3.2-1.22c2.48,0,3.77,1.05,3.77,3.13v5.82H125.26z M125.21,110.82h-1.75c-0.79,0-1.24,0.37-1.24,1
			c0,0.61,0.41,1.01,1.28,1.01c0.61,0,1-0.04,1.39-0.42c0.24-0.22,0.33-0.58,0.33-1.12V110.82z"/>
		<path class="st3" d="M134.52,108.11c-0.34-0.34-0.63-0.52-1.17-0.52c-0.68,0-1.42,0.51-1.42,1.62v5.33h-2.21v-8.85h2.15v0.85
			c0.43-0.5,1.28-0.95,2.23-0.95c0.87,0,1.48,0.22,2.09,0.83L134.52,108.11z"/>
		<path class="st3" d="M142.5,114.55v-5.35c0-1.21-0.76-1.6-1.46-1.6c-0.7,0-1.48,0.4-1.48,1.6v5.35h-2.2v-8.85h2.16v0.81
			c0.58-0.61,1.39-0.92,2.21-0.92c0.88,0,1.59,0.29,2.09,0.78c0.72,0.72,0.9,1.55,0.9,2.52v5.65H142.5z"/>
	</g>
	<g>
		<polygon class="st4" points="156.22,114.55 154.4,114.55 152.55,109 150.7,114.55 148.88,114.55 146.17,105.7 148.51,105.7 
			149.94,111.17 151.73,105.7 153.35,105.7 155.17,111.17 156.6,105.7 158.92,105.7 		"/>
		<path class="st4" d="M166.26,113.57c-0.54,0.58-1.45,1.08-2.75,1.08c-1.31,0-2.19-0.51-2.74-1.08c-0.79-0.84-1-1.83-1-3.45
			c0-1.59,0.21-2.59,1-3.43c0.55-0.57,1.43-1.08,2.74-1.08c1.3,0,2.21,0.51,2.75,1.08c0.8,0.84,1,1.84,1,3.43
			C167.26,111.73,167.05,112.73,166.26,113.57 M164.54,107.98c-0.26-0.25-0.59-0.38-1.03-0.38c-0.44,0-0.77,0.13-1.02,0.38
			c-0.46,0.46-0.51,1.22-0.51,2.14c0,0.92,0.05,1.7,0.51,2.16c0.26,0.26,0.58,0.39,1.02,0.39c0.44,0,0.78-0.13,1.03-0.39
			c0.46-0.45,0.51-1.24,0.51-2.16C165.05,109.2,165,108.44,164.54,107.98"/>
		<path class="st4" d="M174.09,108.11c-0.34-0.34-0.63-0.52-1.17-0.52c-0.68,0-1.43,0.51-1.43,1.62v5.33h-2.21v-8.85h2.15v0.85
			c0.42-0.5,1.28-0.95,2.22-0.95c0.87,0,1.48,0.22,2.09,0.83L174.09,108.11z"/>
		<polygon class="st4" points="182.24,114.55 180.06,110.87 179.13,111.92 179.13,114.55 176.92,114.55 176.92,102.46 
			179.13,102.46 179.13,109.32 182.07,105.7 184.74,105.7 181.57,109.27 184.97,114.55 		"/>
	</g>
	<g>
		<path class="st5" d="M192.83,113.85c-0.49,0.49-1.29,0.8-2.15,0.8c-0.9,0-1.56-0.23-2.14-0.88v4.02h-2.21V105.7h2.14v0.84
			c0.61-0.68,1.27-0.94,2.21-0.94c0.87,0,1.67,0.31,2.15,0.8c0.89,0.88,0.9,2.39,0.9,3.72
			C193.74,111.44,193.72,112.97,192.83,113.85 M190.03,107.59c-1.33,0-1.5,1.08-1.5,2.52c0,1.45,0.17,2.55,1.5,2.55
			c1.32,0,1.49-1.1,1.49-2.55C191.53,108.68,191.36,107.59,190.03,107.59"/>
		<path class="st5" d="M198.26,114.55c-1.82,0-2.58-1.27-2.58-2.53v-9.56h2.21v9.43c0,0.53,0.22,0.8,0.78,0.8h0.85v1.86H198.26z"/>
		<path class="st5" d="M206.07,114.55v-0.76c-0.6,0.59-1.16,0.85-2.17,0.85c-1,0-1.73-0.25-2.26-0.78c-0.48-0.49-0.73-1.2-0.73-1.99
			c0-1.41,0.97-2.56,3.02-2.56h2.09v-0.45c0-0.96-0.47-1.39-1.64-1.39c-0.85,0-1.24,0.2-1.7,0.73l-1.41-1.37
			c0.87-0.95,1.72-1.22,3.19-1.22c2.47,0,3.77,1.05,3.77,3.13v5.82H206.07z M206.01,110.82h-1.75c-0.8,0-1.24,0.37-1.24,1
			c0,0.61,0.41,1.01,1.27,1.01c0.61,0,1-0.04,1.4-0.42c0.24-0.22,0.32-0.58,0.32-1.12V110.82z"/>
		<path class="st5" d="M214.15,115.98c-0.19,0.5-0.39,0.87-0.67,1.14c-0.5,0.51-1.17,0.68-1.9,0.68h-0.87v-1.99h0.51
			c0.63,0,0.88-0.15,1.1-0.8l0.37-1.09l-3.02-8.22h2.33l1.83,5.47l1.77-5.47h2.32L214.15,115.98z"/>
	</g>
</g>
<g>
	<path class="st6" d="M277.32,99.68l-2.22,3.8v2.62h-1.27v-2.62L272,99.69l1.33-0.21l1.32,3l1.62-2.97L277.32,99.68z"/>
	<path class="st6" d="M282.3,103.93h-3.05c0,0.43,0.13,0.79,0.38,1.08c0.27,0.31,0.62,0.46,1.06,0.46c0.27,0,0.54-0.06,0.79-0.17
		c0.14-0.07,0.28-0.13,0.42-0.2l0.34,0.6c-0.19,0.15-0.43,0.27-0.73,0.36c-0.34,0.11-0.69,0.17-1.05,0.17
		c-0.71,0-1.31-0.24-1.77-0.73c-0.47-0.48-0.7-1.07-0.7-1.76c0-0.7,0.22-1.26,0.65-1.69c0.43-0.43,0.99-0.65,1.69-0.65
		c0.66,0,1.18,0.23,1.54,0.69c0.31,0.4,0.46,0.9,0.46,1.49c0,0.1,0,0.17-0.01,0.22C282.31,103.87,282.3,103.9,282.3,103.93z
		 M281.24,103.31c0-0.37-0.06-0.66-0.17-0.87c-0.15-0.26-0.39-0.4-0.72-0.4c-0.32,0-0.58,0.12-0.77,0.36
		c-0.19,0.24-0.28,0.54-0.28,0.91H281.24z"/>
	<path class="st6" d="M287.46,106.1h-1.28c-0.01-0.03-0.03-0.05-0.04-0.08c-0.01-0.02-0.02-0.05-0.03-0.1
		c-0.01-0.05-0.02-0.1-0.03-0.16c0-0.06-0.01-0.12-0.01-0.18v-0.19l-0.53,0.4c-0.2,0.15-0.34,0.25-0.42,0.29
		c-0.15,0.08-0.31,0.12-0.48,0.12c-0.43,0-0.78-0.13-1.05-0.38c-0.27-0.26-0.4-0.58-0.4-0.96c0-0.46,0.19-0.84,0.56-1.14
		c0.29-0.24,0.71-0.43,1.26-0.58l1.07-0.3c-0.08-0.21-0.13-0.34-0.17-0.39c-0.17-0.24-0.41-0.36-0.72-0.36
		c-0.33,0-0.63,0.08-0.92,0.25c-0.09,0.06-0.2,0.14-0.33,0.25l-0.38-0.6c0.13-0.13,0.39-0.26,0.8-0.41
		c0.34-0.13,0.66-0.19,0.96-0.19c0.64,0,1.12,0.14,1.45,0.41c0.33,0.27,0.49,0.65,0.49,1.14v2.02c0,0.13,0,0.25,0,0.37
		c0,0.12,0.02,0.25,0.06,0.39c0.02,0.08,0.04,0.14,0.06,0.2C287.41,105.96,287.43,106.02,287.46,106.1z M286.09,103.8v-0.4
		l-0.46,0.14c-0.52,0.16-0.86,0.33-1.04,0.51c-0.16,0.16-0.24,0.36-0.24,0.6c0,0.2,0.06,0.37,0.18,0.51
		c0.12,0.14,0.28,0.22,0.48,0.22c0.31,0,0.57-0.17,0.78-0.51C286,104.56,286.09,104.2,286.09,103.8z"/>
	<path class="st6" d="M291.54,101.81l-0.44,0.82c-0.02-0.01-0.09-0.04-0.21-0.06c-0.12-0.03-0.21-0.05-0.27-0.05
		c-0.06-0.01-0.11-0.01-0.15-0.01c-0.24,0-0.43,0.11-0.57,0.32c-0.13,0.19-0.19,0.42-0.19,0.69v2.59h-1.22v-4.63h1.19v1.08
		c0.09-0.26,0.17-0.45,0.25-0.57c0.22-0.39,0.48-0.58,0.77-0.58c0.17,0,0.33,0.04,0.48,0.12
		C291.33,101.6,291.45,101.69,291.54,101.81z"/>
	<path class="st6" d="M295.53,104.79c0,0.41-0.17,0.76-0.51,1.04c-0.32,0.27-0.71,0.4-1.16,0.4c-0.33,0-0.64-0.05-0.92-0.14
		c-0.28-0.09-0.52-0.22-0.7-0.39l0.4-0.66c0.01,0.04,0.12,0.11,0.34,0.23c0.26,0.15,0.5,0.22,0.72,0.22c0.15,0,0.29-0.05,0.41-0.15
		c0.12-0.1,0.18-0.23,0.18-0.39c0-0.17-0.07-0.33-0.21-0.49c-0.09-0.1-0.25-0.23-0.48-0.38l-0.44-0.31
		c-0.22-0.15-0.38-0.31-0.49-0.48c-0.11-0.18-0.17-0.4-0.17-0.65c0-0.38,0.17-0.69,0.53-0.93c0.32-0.22,0.69-0.34,1.11-0.34
		c0.18,0,0.39,0.03,0.62,0.1c0.34,0.1,0.55,0.18,0.66,0.25l-0.35,0.61c-0.01-0.01-0.06-0.03-0.16-0.07
		c-0.23-0.09-0.39-0.14-0.47-0.15c-0.08-0.01-0.14-0.01-0.18-0.01c-0.14,0-0.27,0.04-0.38,0.11c-0.11,0.07-0.16,0.16-0.16,0.27
		c0,0.03,0,0.06,0,0.07c0,0.13,0.06,0.25,0.17,0.36c0.06,0.06,0.18,0.15,0.37,0.28l0.57,0.41c0.22,0.15,0.4,0.34,0.53,0.55
		C295.47,104.36,295.53,104.58,295.53,104.79z"/>
	<path class="st6" d="M305.43,102.85c0,0.95-0.29,1.74-0.87,2.38c-0.6,0.66-1.38,0.99-2.33,0.99c-1.01,0-1.81-0.33-2.42-1
		c-0.57-0.63-0.86-1.42-0.86-2.37c0-0.93,0.31-1.71,0.92-2.35c0.63-0.66,1.42-0.98,2.36-0.98c0.97,0,1.75,0.32,2.34,0.96
		C305.15,101.08,305.43,101.88,305.43,102.85z M304.04,102.85c0-0.66-0.14-1.21-0.41-1.66c-0.32-0.52-0.78-0.77-1.38-0.77
		c-0.62,0-1.11,0.26-1.46,0.78c-0.31,0.45-0.46,1-0.46,1.65c0,0.69,0.14,1.25,0.41,1.68c0.34,0.52,0.83,0.78,1.49,0.78
		c0.61,0,1.07-0.26,1.4-0.79C303.9,104.07,304.04,103.52,304.04,102.85z"/>
	<path class="st6" d="M309.57,99.4l-0.18,0.57c-0.02-0.01-0.09-0.02-0.22-0.04c-0.13-0.02-0.23-0.03-0.3-0.03
		c-0.17,0-0.31,0.05-0.43,0.16c-0.12,0.11-0.18,0.24-0.18,0.4v1.03h1.11v0.61h-1.11v4h-1.21v-4h-0.74v-0.61h0.74v-0.52
		c0-0.53,0.14-0.96,0.41-1.29c0.27-0.32,0.65-0.49,1.12-0.49c0.23,0,0.41,0.01,0.54,0.04C309.26,99.25,309.41,99.31,309.57,99.4z"/>
	<path class="st6" d="M254.05,114.29c0,0.55-0.22,0.99-0.65,1.33c-0.42,0.33-0.94,0.5-1.58,0.5c-0.42,0-0.82-0.07-1.19-0.2
		c-0.37-0.14-0.64-0.29-0.81-0.46l0.49-0.74c0.19,0.12,0.35,0.21,0.46,0.27c0.36,0.18,0.66,0.28,0.89,0.28
		c0.3,0,0.54-0.08,0.72-0.23c0.18-0.15,0.28-0.37,0.28-0.64c0-0.25-0.1-0.5-0.29-0.74c-0.11-0.14-0.29-0.3-0.54-0.5l-0.53-0.44
		c-0.27-0.22-0.46-0.38-0.56-0.48c-0.18-0.17-0.31-0.35-0.4-0.53c-0.1-0.21-0.15-0.43-0.15-0.66c0-0.5,0.2-0.9,0.59-1.2
		c0.39-0.3,0.89-0.45,1.49-0.45c0.36,0,0.71,0.07,1.06,0.21c0.28,0.11,0.49,0.23,0.65,0.37l-0.52,0.69c-0.12-0.09-0.22-0.15-0.3-0.2
		c-0.25-0.13-0.5-0.2-0.74-0.2c-0.27,0-0.48,0.06-0.65,0.18c-0.16,0.12-0.24,0.29-0.24,0.51c0,0.16,0.07,0.32,0.22,0.48
		c0.05,0.06,0.21,0.2,0.48,0.44l0.81,0.71c0.34,0.3,0.57,0.55,0.71,0.76C253.96,113.63,254.05,113.95,254.05,114.29z"/>
	<path class="st6" d="M259.35,115.97h-1.24v-2.94c0-0.29-0.06-0.52-0.19-0.69c-0.15-0.21-0.39-0.31-0.69-0.31
		c-0.38,0-0.66,0.13-0.86,0.38c-0.17,0.22-0.25,0.5-0.25,0.86l0.02,2.71h-1.18v-6.86h1.18v2.84c0.16-0.23,0.38-0.41,0.67-0.55
		c0.29-0.13,0.61-0.2,0.97-0.2c0.49,0,0.87,0.13,1.13,0.38c0.2,0.18,0.33,0.43,0.39,0.74c0.03,0.15,0.05,0.32,0.05,0.5V115.97z"/>
	<path class="st6" d="M264.49,115.97h-1.28c-0.01-0.03-0.03-0.05-0.04-0.08c-0.01-0.02-0.02-0.05-0.03-0.1
		c-0.01-0.05-0.02-0.1-0.03-0.16c0-0.06-0.01-0.12-0.01-0.18v-0.19l-0.53,0.4c-0.2,0.15-0.34,0.25-0.42,0.29
		c-0.15,0.08-0.31,0.12-0.48,0.12c-0.43,0-0.78-0.13-1.05-0.38c-0.27-0.26-0.4-0.58-0.4-0.96c0-0.46,0.19-0.84,0.56-1.14
		c0.29-0.24,0.71-0.43,1.26-0.58l1.07-0.3c-0.08-0.21-0.13-0.34-0.17-0.39c-0.17-0.24-0.41-0.36-0.72-0.36
		c-0.33,0-0.63,0.08-0.92,0.25c-0.09,0.06-0.2,0.14-0.33,0.25l-0.38-0.6c0.13-0.13,0.39-0.26,0.8-0.41
		c0.34-0.13,0.66-0.19,0.96-0.19c0.64,0,1.12,0.14,1.45,0.41c0.33,0.27,0.49,0.65,0.49,1.14v2.02c0,0.13,0,0.25,0,0.37
		c0,0.12,0.02,0.25,0.06,0.39c0.02,0.08,0.04,0.14,0.06,0.2C264.43,115.83,264.45,115.9,264.49,115.97z M263.12,113.68v-0.4
		l-0.46,0.14c-0.52,0.16-0.86,0.33-1.04,0.51c-0.16,0.16-0.24,0.36-0.24,0.6c0,0.2,0.06,0.37,0.18,0.51
		c0.12,0.14,0.28,0.22,0.48,0.22c0.31,0,0.57-0.17,0.78-0.51C263.02,114.43,263.12,114.08,263.12,113.68z"/>
	<path class="st6" d="M270.47,113.6c0,0.65-0.2,1.22-0.59,1.71c-0.41,0.51-0.92,0.77-1.51,0.77c-0.36,0-0.68-0.06-0.93-0.18
		c-0.26-0.12-0.49-0.31-0.71-0.56v2.99h-1.18v-6.99h1.18V112c0.21-0.28,0.46-0.48,0.74-0.61c0.28-0.13,0.58-0.2,0.91-0.2
		c0.7,0,1.24,0.25,1.61,0.74C270.3,112.36,270.47,112.92,270.47,113.6z M269.13,113.71c0-0.5-0.08-0.9-0.24-1.21
		c-0.2-0.39-0.51-0.59-0.94-0.59c-0.41,0-0.72,0.18-0.95,0.54c-0.19,0.31-0.29,0.69-0.29,1.14c0,0.49,0.1,0.89,0.3,1.21
		c0.24,0.38,0.57,0.56,1.01,0.56c0.36,0,0.65-0.18,0.85-0.55C269.04,114.51,269.13,114.14,269.13,113.71z"/>
	<path class="st6" d="M272.88,109.86c0,0.19-0.07,0.36-0.21,0.49c-0.14,0.14-0.31,0.2-0.51,0.2c-0.19,0-0.35-0.07-0.49-0.2
		c-0.14-0.14-0.2-0.3-0.2-0.49c0-0.19,0.07-0.35,0.21-0.49c0.14-0.13,0.3-0.2,0.49-0.2c0.2,0,0.36,0.07,0.5,0.2
		C272.81,109.51,272.88,109.67,272.88,109.86z M272.77,115.97h-1.23v-4.63h1.23V115.97z"/>
	<path class="st6" d="M278.48,115.97h-1.22v-2.98c0-0.29-0.09-0.52-0.27-0.69c-0.16-0.15-0.37-0.22-0.63-0.22
		c-0.27,0-0.52,0.09-0.73,0.27c-0.23,0.2-0.35,0.44-0.35,0.75v2.88h-1.22v-4.63h1.22v0.65c0.14-0.21,0.36-0.38,0.64-0.51
		c0.3-0.15,0.62-0.22,0.96-0.22c0.46,0,0.82,0.12,1.09,0.35c0.34,0.29,0.5,0.74,0.5,1.35V115.97z"/>
	<path class="st6" d="M284.21,115.84c0,0.79-0.24,1.4-0.72,1.84c-0.46,0.43-1.09,0.64-1.86,0.64c-0.39,0-0.76-0.04-1.11-0.11
		c-0.35-0.08-0.64-0.19-0.87-0.34l0.25-0.74c0.12,0.1,0.35,0.2,0.69,0.3c0.29,0.09,0.57,0.13,0.84,0.13c0.04,0,0.09,0,0.14,0
		c0.04-0.01,0.07-0.01,0.08-0.01c0.42-0.04,0.76-0.19,0.99-0.45c0.24-0.26,0.36-0.58,0.36-0.97v-0.83c-0.2,0.27-0.44,0.48-0.72,0.61
		c-0.28,0.14-0.58,0.2-0.89,0.2c-0.65,0-1.16-0.24-1.53-0.73c-0.33-0.43-0.49-0.98-0.49-1.63c0-0.67,0.21-1.26,0.62-1.75
		c0.43-0.52,0.96-0.77,1.6-0.77c0.35,0,0.64,0.06,0.86,0.19c0.17,0.1,0.37,0.29,0.6,0.56v-0.63h1.17V115.84z M283.02,113.61
		c0-0.45-0.09-0.83-0.27-1.12c-0.22-0.35-0.53-0.53-0.95-0.53c-0.4,0-0.69,0.19-0.89,0.58c-0.16,0.31-0.24,0.71-0.24,1.19
		c0,0.44,0.08,0.81,0.25,1.11c0.2,0.36,0.48,0.54,0.86,0.54c0.42,0,0.75-0.21,0.97-0.62C282.93,114.42,283.02,114.04,283.02,113.61z
		"/>
	<path class="st6" d="M292.71,109.46l-0.01,0.87h-1.88v5.64h-1.27v-5.64h-1.91v-0.87H292.71z"/>
	<path class="st6" d="M297.91,115.97h-1.24v-2.94c0-0.29-0.06-0.52-0.19-0.69c-0.15-0.21-0.39-0.31-0.69-0.31
		c-0.38,0-0.66,0.13-0.86,0.38c-0.17,0.22-0.25,0.5-0.25,0.86l0.02,2.71h-1.18v-6.86h1.18v2.84c0.16-0.23,0.38-0.41,0.67-0.55
		c0.29-0.13,0.61-0.2,0.97-0.2c0.49,0,0.87,0.13,1.13,0.38c0.2,0.18,0.33,0.43,0.39,0.74c0.03,0.15,0.05,0.32,0.05,0.5V115.97z"/>
	<path class="st6" d="M303.1,113.81h-3.05c0,0.43,0.13,0.79,0.38,1.08c0.27,0.31,0.62,0.46,1.06,0.46c0.27,0,0.54-0.06,0.79-0.17
		c0.14-0.07,0.28-0.13,0.42-0.2l0.34,0.6c-0.19,0.15-0.43,0.27-0.73,0.36c-0.34,0.11-0.69,0.17-1.05,0.17
		c-0.71,0-1.31-0.24-1.77-0.73c-0.47-0.48-0.7-1.07-0.7-1.76c0-0.7,0.22-1.26,0.65-1.69c0.43-0.43,0.99-0.65,1.69-0.65
		c0.66,0,1.18,0.23,1.54,0.69c0.31,0.4,0.46,0.9,0.46,1.49c0,0.1,0,0.17-0.01,0.22C303.11,113.74,303.1,113.78,303.1,113.81z
		 M302.04,113.18c0-0.37-0.06-0.66-0.17-0.87c-0.15-0.26-0.39-0.4-0.72-0.4c-0.32,0-0.58,0.12-0.77,0.36
		c-0.19,0.24-0.28,0.54-0.28,0.91H302.04z"/>
	<path class="st6" d="M310.15,110.33h-2.24v2.04h2.13v0.89h-2.13v2.71h-1.24v-6.51h3.48V110.33z"/>
	<path class="st6" d="M315.45,115.97h-1.21v-0.52c-0.1,0.15-0.31,0.29-0.64,0.44c-0.3,0.14-0.61,0.2-0.93,0.2
		c-0.53,0-0.94-0.16-1.24-0.49c-0.27-0.29-0.4-0.68-0.4-1.16v-3.11h1.22v2.8c0,0.39,0.08,0.68,0.25,0.87
		c0.16,0.18,0.39,0.27,0.69,0.27c0.27,0,0.51-0.1,0.73-0.31c0.21-0.21,0.32-0.46,0.32-0.76v-2.87h1.21V115.97z"/>
	<path class="st6" d="M319.7,115.78c-0.13,0.07-0.24,0.12-0.34,0.15c-0.29,0.1-0.59,0.15-0.9,0.15c-0.49,0-0.86-0.13-1.11-0.4
		c-0.21-0.23-0.31-0.55-0.31-0.96v-2.77h-0.63v-0.61h0.63v-1.11l1.21-0.29v1.4h1.22v0.61h-1.22v2.32c0,0.38,0.05,0.66,0.15,0.83
		s0.27,0.26,0.51,0.26c0.09,0,0.19-0.01,0.3-0.04c0.11-0.03,0.19-0.06,0.25-0.1L319.7,115.78z"/>
	<path class="st6" d="M324.98,115.97h-1.21v-0.52c-0.1,0.15-0.31,0.29-0.64,0.44c-0.3,0.14-0.61,0.2-0.93,0.2
		c-0.53,0-0.94-0.16-1.24-0.49c-0.27-0.29-0.4-0.68-0.4-1.16v-3.11h1.22v2.8c0,0.39,0.08,0.68,0.25,0.87
		c0.16,0.18,0.39,0.27,0.69,0.27c0.27,0,0.51-0.1,0.73-0.31c0.21-0.21,0.32-0.46,0.32-0.76v-2.87h1.21V115.97z"/>
	<path class="st6" d="M329.16,111.68l-0.44,0.82c-0.02-0.01-0.09-0.04-0.21-0.06c-0.12-0.03-0.21-0.05-0.27-0.05
		c-0.06-0.01-0.11-0.01-0.15-0.01c-0.24,0-0.43,0.11-0.58,0.32c-0.13,0.19-0.19,0.42-0.19,0.69v2.59h-1.22v-4.63h1.19v1.08
		c0.09-0.26,0.18-0.45,0.25-0.57c0.22-0.39,0.48-0.58,0.77-0.58c0.17,0,0.33,0.04,0.48,0.12
		C328.95,111.47,329.07,111.57,329.16,111.68z"/>
	<path class="st6" d="M334.19,113.81h-3.05c0,0.43,0.13,0.79,0.38,1.08c0.27,0.31,0.62,0.46,1.06,0.46c0.27,0,0.54-0.06,0.79-0.17
		c0.14-0.07,0.28-0.13,0.42-0.2l0.34,0.6c-0.19,0.15-0.43,0.27-0.73,0.36c-0.34,0.11-0.69,0.17-1.05,0.17
		c-0.72,0-1.31-0.24-1.77-0.73c-0.47-0.48-0.7-1.07-0.7-1.76c0-0.7,0.22-1.26,0.65-1.69c0.43-0.43,0.99-0.65,1.69-0.65
		c0.66,0,1.18,0.23,1.54,0.69c0.31,0.4,0.46,0.9,0.46,1.49c0,0.1,0,0.17-0.01,0.22C334.19,113.74,334.19,113.78,334.19,113.81z
		 M333.12,113.18c0-0.37-0.06-0.66-0.17-0.87c-0.15-0.26-0.39-0.4-0.72-0.4c-0.32,0-0.58,0.12-0.77,0.36
		c-0.19,0.24-0.28,0.54-0.28,0.91H333.12z"/>
	<g>
		<path class="st7" d="M262.67,51.07c-0.08,0-0.16-0.01-0.23-0.04c-0.39-0.13-0.6-0.55-0.47-0.93l5.94-17.89h21.53
			c0.41,0,0.74,0.33,0.74,0.74c0,0.41-0.33,0.74-0.74,0.74h-20.46l-5.6,16.88C263.27,50.87,262.98,51.07,262.67,51.07z"/>
	</g>
	<g>
		<path class="st8" d="M259.94,50.15c-0.08,0-0.16-0.01-0.23-0.04c-0.39-0.13-0.6-0.55-0.47-0.93l6.64-20.01h26.28
			c0.41,0,0.74,0.33,0.74,0.74s-0.33,0.74-0.74,0.74h-25.21l-6.31,18.99C260.54,49.95,260.25,50.15,259.94,50.15z"/>
	</g>
	<g>
		<path class="st9" d="M257.15,49.2c-0.08,0-0.16-0.01-0.23-0.04c-0.39-0.13-0.6-0.55-0.47-0.93l7.36-22.18h31.25
			c0.41,0,0.74,0.33,0.74,0.74s-0.33,0.74-0.74,0.74h-30.18l-7.03,21.17C257.75,49.01,257.46,49.2,257.15,49.2z"/>
	</g>
	<g>
		<path class="st5" d="M254.46,48.29c-0.08,0-0.16-0.01-0.23-0.04c-0.39-0.13-0.6-0.55-0.47-0.93l8.06-24.29h35.74
			c0.41,0,0.74,0.33,0.74,0.74s-0.33,0.74-0.74,0.74h-34.67l-7.73,23.28C255.06,48.1,254.77,48.29,254.46,48.29z"/>
	</g>
	<g>
		<path class="st0" d="M253.67,60c-0.66-0.35-1.55-0.66-2.44-0.66c-1.27,0-1.96,0.55-1.96,1.23c0,0.76,1.06,1.34,2.82,2.42
			c2.02,1.25,3.09,2.22,3.09,3.64c0,1.46-1.81,3.15-5.2,3.15c-1.57,0-3.32-0.37-4.44-1.16l1.1-1.33c0.79,0.45,1.72,0.93,3.07,0.93
			c1.25,0,2.35-0.51,2.35-1.61c0-1.27-2.02-2.12-3.23-2.85c-1.46-0.91-2.69-1.62-2.69-3.17c0-1.56,2.04-2.82,4.78-2.82
			c1.72,0,3.1,0.48,3.8,1.01L253.67,60z"/>
		<polygon class="st1" points="271.41,60.8 269.91,59.18 271.41,57.56 272.9,59.18 		"/>
		<path class="st0" d="M280.65,67.79c-0.25-0.41-0.34-0.99-0.34-1.45v-2.8c0.01-1-0.52-1.63-1.18-1.96
			c-0.66-0.33-1.45-0.41-2.09-0.41c-1.18,0-2.09,0.27-2.95,0.9l-0.18,0.14l0.85,0.85l0.13-0.09c0.59-0.38,1.15-0.66,2.07-0.66
			c0.36,0,0.72,0.11,0.99,0.31c0.22,0.16,0.38,0.37,0.44,0.62l-1.82,0.44c-0.87,0.2-1.63,0.48-2.19,0.87
			c-0.55,0.38-0.91,0.9-0.91,1.53c0,0.65,0.27,1.21,0.73,1.58c0.46,0.38,1.09,0.58,1.82,0.58c0.83,0,1.59-0.42,2.19-0.88l0,0
			l0.22-0.17c0.02,0.29,0.09,0.58,0.26,0.82l0.06,0.08h2.07L280.65,67.79z M278.45,64.54c0,1.63-1.16,2.41-2.04,2.42
			c-0.25,0-0.51-0.09-0.69-0.25c-0.19-0.16-0.3-0.37-0.3-0.64c0-0.34,0.13-0.59,0.43-0.82c0.3-0.23,0.77-0.43,1.41-0.58v0l1.2-0.27
			C278.45,64.45,278.45,64.49,278.45,64.54z M277.2,64.47L277.2,64.47L277.2,64.47L277.2,64.47z"/>
		<rect x="270.53" y="61.38" class="st0" width="1.75" height="6.64"/>
		<path class="st0" d="M269.22,66.83l-0.11,0.04c-0.28,0.11-0.56,0.21-1.09,0.21c-0.43,0-0.66-0.12-0.8-0.32
			c-0.15-0.2-0.21-0.54-0.21-0.97V62.3h2.17v-0.92h-2.17v-1.95l-1.75,0.46v1.5h-1.16v0.92h1.16v3.7c0,0.68,0.21,1.23,0.65,1.61
			c0.44,0.37,1.08,0.56,1.93,0.56c0.59,0,1.22-0.16,1.75-0.42l0.13-0.06L269.22,66.83z"/>
		<path class="st0" d="M262.84,66.51c-0.53,0.31-1.45,0.53-2.17,0.52c-1.46,0-2.49-0.98-2.59-2.06h5.56l0.02-0.18
			c0.01-0.14,0.02-0.28,0.02-0.42c0-0.8-0.24-1.61-0.79-2.22c-0.55-0.61-1.42-1-2.62-1c-0.97,0-1.99,0.26-2.78,0.81
			c-0.79,0.55-1.35,1.43-1.34,2.59c0,1.17,0.45,2.11,1.25,2.73c0.8,0.62,1.91,0.93,3.23,0.93c0.9,0,1.96-0.27,2.85-0.76l0.19-0.1
			L263,66.42L262.84,66.51z M258.19,63.82c0.13-0.69,0.69-1.44,2.05-1.45c0.61,0,1.01,0.19,1.27,0.48c0.22,0.25,0.35,0.59,0.38,0.96
			H258.19z"/>
	</g>
	<path class="st5" d="M304.84,39.9c-4.8,0-9.31,1.23-13.25,3.39c0.41,0.34,0.81,0.68,1.2,1.04c3.61-1.88,7.7-2.95,12.04-2.95
		c14.41,0,26.14,11.73,26.14,26.14c0,14.41-11.73,26.14-26.14,26.14c-4.34,0-8.44-1.07-12.04-2.95c-0.39,0.36-0.79,0.7-1.2,1.04
		c3.94,2.16,8.45,3.39,13.25,3.39c15.23,0,27.62-12.39,27.62-27.62C332.46,52.29,320.07,39.9,304.84,39.9z"/>
	<path class="st7" d="M304.84,48.68c-2.51,0-4.9,0.5-7.1,1.39c0.28,0.42,0.55,0.84,0.81,1.27c1.95-0.76,4.07-1.18,6.29-1.18
		c9.57,0,17.36,7.79,17.36,17.36c0,9.57-7.79,17.36-17.36,17.36c-2.22,0-4.34-0.42-6.29-1.18c-0.26,0.43-0.53,0.85-0.81,1.27
		c2.19,0.89,4.59,1.39,7.1,1.39c10.39,0,18.84-8.45,18.84-18.84C323.68,57.13,315.23,48.68,304.84,48.68z"/>
	<path class="st8" d="M304.84,45.76c-3.17,0-6.17,0.68-8.89,1.91c0.32,0.39,0.63,0.79,0.93,1.2c2.44-1.05,5.13-1.63,7.95-1.63
		c11.19,0,20.29,9.1,20.29,20.29c0,11.19-9.1,20.29-20.29,20.29c-2.82,0-5.51-0.58-7.95-1.63c-0.3,0.41-0.61,0.81-0.93,1.2
		c2.72,1.22,5.72,1.91,8.89,1.91c12,0,21.77-9.76,21.77-21.77C326.61,55.52,316.85,45.76,304.84,45.76z"/>
	<path class="st9" d="M304.84,42.83c-3.93,0-7.64,0.93-10.94,2.56c0.36,0.37,0.72,0.74,1.07,1.13c3-1.41,6.34-2.21,9.87-2.21
		c12.8,0,23.21,10.41,23.21,23.21c0,12.8-10.41,23.21-23.21,23.21c-3.53,0-6.87-0.79-9.87-2.21c-0.35,0.38-0.7,0.76-1.07,1.13
		c3.3,1.64,7.01,2.56,10.94,2.56c13.62,0,24.69-11.08,24.69-24.69C329.54,53.91,318.46,42.83,304.84,42.83z"/>
	<path class="st7" d="M271.7,48.68c-1.97,0-3.8,0.3-5.59,0.87l-0.59,1.79c1.95-0.76,3.97-1.18,6.18-1.18
		c9.57,0,17.36,7.79,17.36,17.36c0,9.57-7.79,17.36-17.36,17.36c-7.4,0-13.72-4.65-16.22-11.18l-1.44,0.39
		c2.67,7.16,9.58,12.27,17.66,12.27c10.39,0,18.84-8.45,18.84-18.84C290.54,57.13,282.09,48.68,271.7,48.68z"/>
	<path class="st9" d="M271.7,42.83c-1.16,0-2.33,0.09-3.45,0.25l-0.52,1.58c1.29-0.22,2.61-0.35,3.97-0.35
		c12.8,0,23.21,10.41,23.21,23.21c0,12.8-10.41,23.21-23.21,23.21c-10.09,0-18.7-6.48-21.89-15.49l-1.43,0.39
		c3.36,9.64,12.54,16.58,23.32,16.58c13.62,0,24.69-11.08,24.69-24.69C296.39,53.91,285.31,42.83,271.7,42.83z"/>
	<path class="st5" d="M271.7,39.9c-0.8,0-1.65,0.04-2.44,0.11l-0.51,1.55c0.95-0.11,1.97-0.18,2.95-0.18
		c14.41,0,26.14,11.73,26.14,26.14c0,14.41-11.73,26.14-26.14,26.14c-11.44,0-21.18-7.39-24.72-17.65l-1.43,0.39
		c3.71,10.89,14.02,18.74,26.15,18.74c15.23,0,27.62-12.39,27.62-27.62C299.32,52.29,286.93,39.9,271.7,39.9z"/>
	<path class="st8" d="M271.7,45.76c-1.54,0-3.04,0.16-4.49,0.47l-0.54,1.64c1.61-0.41,3.29-0.63,5.03-0.63
		c11.19,0,20.29,9.1,20.29,20.29c0,11.19-9.1,20.29-20.29,20.29c-8.75,0-16.22-5.56-19.06-13.33l-1.43,0.39
		c3.02,8.4,11.06,14.42,20.49,14.42c12,0,21.77-9.76,21.77-21.77C293.46,55.52,283.7,45.76,271.7,45.76z"/>
</g>
</svg>
