<svg width="43" height="43" viewBox="0 0 43 43" fill="none" xmlns="http://www.w3.org/2000/svg">
<path d="M3.58337 14.3333C3.58337 13.8581 3.77214 13.4024 4.10814 13.0664C4.44414 12.7304 4.89986 12.5417 5.37504 12.5417H37.625C38.1002 12.5417 38.5559 12.7304 38.8919 13.0664C39.2279 13.4024 39.4167 13.8581 39.4167 14.3333C39.4167 14.8085 39.2279 15.2642 38.8919 15.6002C38.5559 15.9362 38.1002 16.125 37.625 16.125H5.37504C4.89986 16.125 4.44414 15.9362 4.10814 15.6002C3.77214 15.2642 3.58337 14.8085 3.58337 14.3333ZM3.58337 21.5C3.58337 21.0248 3.77214 20.5691 4.10814 20.2331C4.44414 19.8971 4.89986 19.7083 5.37504 19.7083H37.625C38.1002 19.7083 38.5559 19.8971 38.8919 20.2331C39.2279 20.5691 39.4167 21.0248 39.4167 21.5C39.4167 21.9752 39.2279 22.4309 38.8919 22.7669C38.5559 23.1029 38.1002 23.2917 37.625 23.2917H5.37504C4.89986 23.2917 4.44414 23.1029 4.10814 22.7669C3.77214 22.4309 3.58337 21.9752 3.58337 21.5ZM5.37504 26.875C4.89986 26.875 4.44414 27.0638 4.10814 27.3998C3.77214 27.7358 3.58337 28.1915 3.58337 28.6667C3.58337 29.1418 3.77214 29.5976 4.10814 29.9336C4.44414 30.2696 4.89986 30.4583 5.37504 30.4583H26.875C27.3502 30.4583 27.8059 30.2696 28.1419 29.9336C28.4779 29.5976 28.6667 29.1418 28.6667 28.6667C28.6667 28.1915 28.4779 27.7358 28.1419 27.3998C27.8059 27.0638 27.3502 26.875 26.875 26.875H5.37504Z" fill="#D9D9D9"/>
</svg>
